<svg xmlns="http://www.w3.org/2000/svg" xmlns:xlink="http://www.w3.org/1999/xlink" width="500" zoomAndPan="magnify" viewBox="0 0 375 374.999991" height="500" preserveAspectRatio="xMidYMid meet" version="1.0"><defs><g/><clipPath id="c9c3f17bdf"><path d="M 375 0 L 0 0 L 0 288.28125 L 72.65625 288.28125 L 72.65625 375 L 213.867188 288.28125 L 375 288.28125 Z M 375 0 " clip-rule="nonzero"/></clipPath></defs><g clip-path="url(#c9c3f17bdf)"><rect x="-37.5" width="450" fill="#dffe00" y="-37.499999" height="449.999989" fill-opacity="1"/></g><g fill="#000000" fill-opacity="1"><g transform="translate(57.931611, 253.559148)"><g><path d="M 189.34375 -144.78125 L 188.40625 -144.78125 L 172.28125 -112.53125 L 129.28125 -34.453125 L 87.25 -112.21875 L 70.5 -146.984375 L 69.546875 -146.984375 L 69.546875 0 L 24.34375 0 L 24.34375 -220.640625 L 75.234375 -220.640625 L 129.28125 -117.28125 L 129.921875 -117.28125 L 183.34375 -220.640625 L 234.546875 -220.640625 L 234.546875 0 L 189.34375 0 Z M 189.34375 -144.78125 "/></g></g></g></svg>